<?xml version="1.0" encoding="UTF-8" standalone="no"?><!DOCTYPE svg PUBLIC "-//W3C//DTD SVG 1.1//EN" "http://www.w3.org/Graphics/SVG/1.1/DTD/svg11.dtd"><svg width="100%" height="100%" viewBox="0 0 45 46" version="1.1" xmlns="http://www.w3.org/2000/svg" xmlns:xlink="http://www.w3.org/1999/xlink" xml:space="preserve" xmlns:serif="http://www.serif.com/" style="fill-rule:evenodd;clip-rule:evenodd;stroke-linejoin:round;stroke-miterlimit:2;"><g id="ico-google"><path d="M9.236,22.545c-0,-1.464 0.243,-2.869 0.677,-4.185l-7.598,-5.803c-1.481,3.007 -2.315,6.395 -2.315,9.988c-0,3.59 0.833,6.976 2.312,9.981l7.594,-5.814c-0.43,-1.311 -0.67,-2.71 -0.67,-4.167" style="fill:#fff;"/><path d="M22.577,9.223c3.181,0 6.055,1.127 8.313,2.972l6.568,-6.559c-4.003,-3.484 -9.134,-5.636 -14.881,-5.636c-8.922,0 -16.591,5.102 -20.263,12.558l7.599,5.802c1.75,-5.314 6.741,-9.137 12.664,-9.137" style="fill:#fff;"/><path d="M22.577,35.868c-5.922,0 -10.913,-3.823 -12.664,-9.137l-7.599,5.801c3.672,7.457 11.341,12.559 20.263,12.559c5.507,0 10.765,-1.955 14.71,-5.619l-7.212,-5.576c-2.035,1.282 -4.598,1.972 -7.498,1.972" style="fill:#fff;"/><path d="M44.127,22.545c0,-1.332 -0.205,-2.767 -0.513,-4.099l-21.038,0l0,8.711l12.11,0c-0.606,2.97 -2.254,5.253 -4.612,6.739l7.212,5.576c4.145,-3.847 6.841,-9.578 6.841,-16.927" style="fill:#fff;"/></g></svg>