<?xml version="1.0" encoding="UTF-8" standalone="no"?><!DOCTYPE svg PUBLIC "-//W3C//DTD SVG 1.1//EN" "http://www.w3.org/Graphics/SVG/1.1/DTD/svg11.dtd"><svg width="100%" height="100%" viewBox="0 0 46 46" version="1.1" xmlns="http://www.w3.org/2000/svg" xmlns:xlink="http://www.w3.org/1999/xlink" xml:space="preserve" xmlns:serif="http://www.serif.com/" style="fill-rule:evenodd;clip-rule:evenodd;stroke-linejoin:round;stroke-miterlimit:2;"><g id="ico-outlook"><path d="M28.397,33.662l0,-11.965c0.851,0.583 1.646,1.128 2.44,1.673c0.713,0.489 0.833,0.486 1.569,-0.003c4.073,-2.707 8.146,-5.413 12.219,-8.118c0.124,-0.082 0.251,-0.158 0.431,-0.271c0.014,0.186 0.034,0.324 0.034,0.463c0.001,5.206 0.004,10.412 -0.001,15.618c-0.001,1.73 -0.875,2.601 -2.596,2.602c-4.527,0.002 -9.054,0.001 -13.581,0.001l-0.515,-0Z" style="fill:#fff;"/><path d="M28.43,9.549l14.803,0c0.855,0.001 1.516,0.523 1.785,1.345c0.118,0.361 -0.002,0.537 -0.294,0.733c-3.703,2.479 -7.398,4.97 -11.096,7.458c-0.528,0.356 -1.063,0.701 -1.582,1.07c-0.284,0.202 -0.535,0.213 -0.83,0.023c-0.845,-0.544 -1.705,-1.064 -2.544,-1.617c-0.14,-0.092 -0.286,-0.303 -0.287,-0.46c-0.015,-2.796 -0.007,-5.593 -0.004,-8.389c-0,-0.032 0.018,-0.063 0.049,-0.163Z" style="fill:#fff;"/><path d="M19.289,22.503c-0.018,-1.832 -0.268,-3.524 -1.174,-5.057c-0.731,-1.238 -1.718,-2.178 -3.139,-2.582c-2.763,-0.787 -5.409,0.507 -6.711,3.304c-0.834,1.792 -1.012,3.694 -0.851,5.64c0.139,1.687 0.627,3.245 1.715,4.578c2.162,2.65 6.096,2.667 8.287,0.034c1.45,-1.743 1.844,-3.818 1.873,-5.917Zm6.987,22.589c-8.766,-1.835 -17.499,-3.663 -26.264,-5.497l0,-0.577c0,-11.119 0.003,-22.239 -0.012,-33.358c-0.001,-0.461 0.123,-0.621 0.574,-0.707c7.008,-1.339 14.013,-2.697 21.019,-4.05c1.544,-0.298 3.089,-0.596 4.684,-0.903l0,45.092l-0.001,-0Z" style="fill:#fff;"/><path d="M10.256,22.544c-0.004,-1.306 0.172,-2.57 0.911,-3.69c0.683,-1.034 1.719,-1.456 2.86,-1.17c0.887,0.222 1.423,0.848 1.78,1.639c0.61,1.35 0.716,2.786 0.531,4.224c-0.102,0.798 -0.328,1.606 -0.652,2.342c-0.419,0.951 -1.223,1.495 -2.298,1.519c-1.082,0.024 -1.835,-0.537 -2.362,-1.435c-0.622,-1.059 -0.773,-2.228 -0.77,-3.429" style="fill:#fff;"/></g></svg>