<?xml version="1.0" encoding="UTF-8" standalone="no"?><!DOCTYPE svg PUBLIC "-//W3C//DTD SVG 1.1//EN" "http://www.w3.org/Graphics/SVG/1.1/DTD/svg11.dtd"><svg width="100%" height="100%" viewBox="0 0 37 46" version="1.1" xmlns="http://www.w3.org/2000/svg" xmlns:xlink="http://www.w3.org/1999/xlink" xml:space="preserve" xmlns:serif="http://www.serif.com/" style="fill-rule:evenodd;clip-rule:evenodd;stroke-linejoin:round;stroke-miterlimit:2;"><g id="ico-apple"><path d="M30.669,23.961c-0.057,-5.712 4.658,-8.451 4.869,-8.59c-2.65,-3.874 -6.778,-4.406 -8.247,-4.466c-3.511,-0.357 -6.853,2.068 -8.634,2.068c-1.777,-0 -4.529,-2.016 -7.44,-1.965c-3.829,0.057 -7.359,2.228 -9.329,5.656c-3.977,6.898 -1.017,17.122 2.858,22.721c1.894,2.737 4.153,5.817 7.118,5.704c2.856,-0.113 3.934,-1.848 7.388,-1.848c3.453,-0 4.423,1.848 7.445,1.79c3.072,-0.056 5.02,-2.789 6.899,-5.537c2.174,-3.179 3.07,-6.258 3.123,-6.413c-0.067,-0.032 -5.989,-2.3 -6.05,-9.12" style="fill:#fff;fill-rule:nonzero;"/><path d="M24.991,7.199c1.572,-1.908 2.637,-4.56 2.347,-7.199c-2.268,0.091 -5.014,1.507 -6.643,3.414c-1.459,1.692 -2.735,4.385 -2.393,6.977c2.531,0.196 5.112,-1.287 6.689,-3.192" style="fill:#fff;fill-rule:nonzero;"/></g></svg>