<?xml version="1.0" encoding="UTF-8"?>
<svg id="Capa_2" data-name="Capa 2" xmlns="http://www.w3.org/2000/svg" viewBox="0 0 1175.36 613.37">
  <defs>
    <style>
      .cls-1 {
        fill: #fff;
      }

      .cls-2 {
        fill: #00007f;
      }

      .cls-3 {
        fill: #ec1c24;
      }

      .cls-4 {
        fill: #ffc907;
      }
    </style>
  </defs>
  <g id="Capa_1_copia" data-name="Capa 1 copia">
    <g>
      <g>
        <rect class="cls-4" x="2.78" y="489.22" width="526.62" height="25.41"/>
        <rect class="cls-2" x="518.34" y="489.22" width="311.43" height="25.41"/>
        <rect class="cls-3" x="829.65" y="489.22" width="345.61" height="25.41"/>
      </g>
      <g>
        <path class="cls-1" d="M6.72,1.52h49.77v11.92H20.86v21.26h32.71v11.92H20.86v24.77h35.63v11.92H6.72V1.52Z"/>
        <path class="cls-1" d="M68.29,1.52h12.85v81.77h-12.85V1.52Z"/>
        <path class="cls-1" d="M107.94,80.55c-4.32-2.61-7.73-6.23-10.22-10.86-2.49-4.63-3.74-9.83-3.74-15.59s1.26-10.73,3.8-15.36c2.53-4.63,6.05-8.29,10.57-10.98s9.58-4.03,15.19-4.03c5.14,0,9.73,1.09,13.78,3.27,4.05,2.18,7.2,5.42,9.46,9.7,2.26,4.29,3.39,9.46,3.39,15.54,0,1.64-.04,2.84-.12,3.62h-42.87c.31,5.76,1.91,10.18,4.79,13.26,2.88,3.08,6.62,4.61,11.22,4.61,3.5,0,6.52-.84,9.05-2.51,2.53-1.67,4.26-3.99,5.2-6.95h12.5c-1.56,6.62-4.85,11.64-9.87,15.07-5.02,3.43-10.85,5.14-17.46,5.14-5.45,0-10.34-1.3-14.66-3.91ZM137.09,46.73c-.47-3.89-1.95-6.91-4.44-9.05-2.49-2.14-5.65-3.21-9.46-3.21s-6.86,1.07-9.58,3.21c-2.73,2.14-4.6,5.16-5.61,9.05h29.09Z"/>
        <path class="cls-1" d="M174,80.49c-4.52-2.65-8.12-6.31-10.8-10.98-2.69-4.67-4.03-9.85-4.03-15.54s1.34-10.83,4.03-15.42c2.69-4.6,6.38-8.22,11.1-10.86,4.71-2.65,9.99-3.97,15.83-3.97,6.7,0,12.42,1.77,17.17,5.32,4.75,3.55,7.95,8.82,9.58,15.83h-13.09c-3.04-6.07-7.79-9.11-14.25-9.11-3.04,0-5.8.76-8.3,2.28s-4.48,3.66-5.96,6.43-2.22,5.94-2.22,9.52.74,6.78,2.22,9.58c1.48,2.8,3.47,4.96,5.96,6.48s5.22,2.28,8.18,2.28c3.58,0,6.7-.91,9.35-2.74,2.65-1.83,4.52-4.22,5.61-7.18h12.85c-1.01,4.6-2.94,8.55-5.78,11.86-2.84,3.31-6.25,5.84-10.22,7.6-3.97,1.75-8.14,2.63-12.5,2.63-5.3,0-10.2-1.32-14.72-3.97Z"/>
        <path class="cls-1" d="M240.59,80.49c-4.52-2.65-8.12-6.31-10.8-10.98-2.69-4.67-4.03-9.85-4.03-15.54s1.34-10.83,4.03-15.42c2.69-4.6,6.38-8.22,11.1-10.86,4.71-2.65,9.99-3.97,15.83-3.97,6.7,0,12.42,1.77,17.17,5.32,4.75,3.55,7.95,8.82,9.58,15.83h-13.09c-3.04-6.07-7.79-9.11-14.25-9.11-3.04,0-5.8.76-8.3,2.28s-4.48,3.66-5.96,6.43-2.22,5.94-2.22,9.52.74,6.78,2.22,9.58c1.48,2.8,3.47,4.96,5.96,6.48s5.22,2.28,8.18,2.28c3.58,0,6.7-.91,9.35-2.74,2.65-1.83,4.52-4.22,5.61-7.18h12.85c-1.01,4.6-2.94,8.55-5.78,11.86-2.84,3.31-6.25,5.84-10.22,7.6-3.97,1.75-8.14,2.63-12.5,2.63-5.3,0-10.2-1.32-14.72-3.97Z"/>
        <path class="cls-1" d="M296.02,13.96c-1.6-1.59-2.39-3.52-2.39-5.78s.8-4.18,2.39-5.78c1.6-1.6,3.52-2.4,5.78-2.4s4.18.8,5.78,2.4c1.6,1.6,2.4,3.52,2.4,5.78s-.8,4.19-2.4,5.78c-1.6,1.6-3.52,2.4-5.78,2.4s-4.19-.8-5.78-2.4ZM295.5,24.88h12.85v58.41h-12.85V24.88Z"/>
        <path class="cls-1" d="M336.44,80.37c-4.71-2.73-8.43-6.4-11.16-11.04-2.73-4.63-4.09-9.75-4.09-15.36s1.34-10.71,4.03-15.3c2.69-4.6,6.37-8.24,11.04-10.92s9.93-4.03,15.77-4.03,11.1,1.34,15.77,4.03,8.31,6.33,10.92,10.92,3.91,9.7,3.91,15.3-1.32,10.73-3.97,15.36c-2.65,4.64-6.31,8.32-10.98,11.04s-9.89,4.09-15.65,4.09-10.88-1.36-15.6-4.09ZM364.12,67.23c3.16-3.39,4.73-7.81,4.73-13.26s-1.58-9.83-4.73-13.14c-3.15-3.31-7.18-4.97-12.09-4.97s-9.05,1.66-12.21,4.97c-3.15,3.31-4.73,7.69-4.73,13.14s1.58,9.87,4.73,13.26c3.16,3.39,7.22,5.08,12.21,5.08s8.94-1.69,12.09-5.08Z"/>
        <path class="cls-1" d="M395.61,24.88h10.51l1.4,6.78h.12c1.56-2.18,3.87-4.05,6.95-5.61,3.08-1.56,6.72-2.34,10.92-2.34,3.97,0,7.59.88,10.86,2.63s5.88,4.32,7.83,7.71c1.95,3.39,2.92,7.42,2.92,12.09v37.15h-13.2v-34.34c0-4.52-1.13-7.96-3.39-10.34-2.26-2.37-5.26-3.56-9-3.56s-6.89,1.21-9.23,3.62c-2.34,2.42-3.51,5.84-3.51,10.28v34.34h-13.2V24.88Z"/>
        <path class="cls-1" d="M473.11,80.55c-4.32-2.61-7.73-6.23-10.22-10.86s-3.74-9.83-3.74-15.59,1.26-10.73,3.8-15.36c2.53-4.63,6.05-8.29,10.57-10.98s9.58-4.03,15.19-4.03c5.14,0,9.73,1.09,13.78,3.27,4.05,2.18,7.2,5.42,9.46,9.7,2.26,4.29,3.39,9.46,3.39,15.54,0,1.64-.04,2.84-.12,3.62h-42.87c.31,5.76,1.91,10.18,4.79,13.26,2.88,3.08,6.62,4.61,11.22,4.61,3.5,0,6.52-.84,9.05-2.51,2.53-1.67,4.26-3.99,5.2-6.95h12.5c-1.56,6.62-4.85,11.64-9.87,15.07-5.02,3.43-10.85,5.14-17.46,5.14-5.45,0-10.34-1.3-14.66-3.91ZM502.26,46.73c-.47-3.89-1.95-6.91-4.44-9.05-2.49-2.14-5.65-3.21-9.46-3.21s-6.86,1.07-9.58,3.21c-2.73,2.14-4.6,5.16-5.61,9.05h29.09Z"/>
        <path class="cls-1" d="M530.94,79.44c-4.64-3.35-6.95-8.49-6.95-15.42h12.62c.7,6.62,4.56,9.93,11.57,9.93,3.12,0,5.53-.62,7.24-1.87s2.57-2.92,2.57-5.03-.84-3.78-2.51-4.79c-1.68-1.01-4.61-2.06-8.82-3.15-4.44-1.09-8.12-2.3-11.04-3.62-2.92-1.32-5.28-3.17-7.07-5.55-1.79-2.37-2.69-5.47-2.69-9.29,0-3.27.93-6.19,2.8-8.76s4.44-4.58,7.71-6.02c3.27-1.44,6.93-2.16,10.98-2.16,7.09,0,12.58,1.77,16.47,5.32,3.89,3.55,6.15,8.47,6.78,14.78h-12.38c-.08-3.04-1.09-5.39-3.04-7.07-1.95-1.68-4.48-2.51-7.59-2.51-2.49,0-4.52.55-6.08,1.64-1.56,1.09-2.34,2.61-2.34,4.56s.86,3.27,2.57,4.21,4.6,1.91,8.65,2.92c4.67,1.17,8.49,2.41,11.45,3.74s5.33,3.14,7.13,5.43c1.79,2.3,2.69,5.28,2.69,8.94s-1.11,6.91-3.33,9.75c-2.22,2.84-5.16,5.06-8.82,6.66-3.66,1.6-7.6,2.39-11.8,2.39-6.54,0-12.13-1.67-16.76-5.02Z"/>
        <path class="cls-1" d="M621.18,81.42c-4.28-2.1-7.61-4.99-9.99-8.65s-3.56-7.71-3.56-12.15c0-4.67,1.17-8.65,3.51-11.92,2.34-3.27,5.61-5.8,9.81-7.59-3.66-1.71-6.52-4.17-8.59-7.36-2.06-3.19-3.1-6.78-3.1-10.75,0-4.28,1.11-8.14,3.33-11.56,2.22-3.43,5.35-6.14,9.4-8.12,4.05-1.99,8.65-2.98,13.79-2.98s9.71.99,13.73,2.98c4.01,1.98,7.13,4.69,9.35,8.12,2.22,3.43,3.33,7.28,3.33,11.56,0,3.97-1.01,7.56-3.04,10.75-2.03,3.19-4.87,5.65-8.53,7.36,4.21,1.79,7.48,4.32,9.81,7.59,2.34,3.27,3.51,7.24,3.51,11.92s-1.19,8.49-3.56,12.15-5.71,6.54-9.99,8.65c-4.29,2.1-9.15,3.15-14.6,3.15s-10.32-1.05-14.6-3.15ZM646.12,69.62c2.61-2.41,3.91-5.53,3.91-9.35s-1.3-6.97-3.91-9.46c-2.61-2.49-6.06-3.74-10.34-3.74s-7.73,1.25-10.34,3.74c-2.61,2.49-3.91,5.65-3.91,9.46s1.3,6.83,3.91,9.29c2.61,2.45,6.05,3.68,10.34,3.68s7.73-1.21,10.34-3.62ZM644.95,32.07c2.3-2.3,3.45-5.08,3.45-8.35s-1.15-6.15-3.45-8.41c-2.3-2.26-5.35-3.39-9.17-3.39s-6.87,1.13-9.17,3.39c-2.3,2.26-3.45,5.06-3.45,8.41s1.15,6.06,3.45,8.35,5.35,3.45,9.17,3.45,6.87-1.15,9.17-3.45Z"/>
        <path class="cls-1" d="M714.92,80.61c-4.4-2.57-7.89-6.15-10.46-10.75-2.57-4.59-3.86-9.81-3.86-15.65s1.29-11.19,3.86-15.83,6.09-8.24,10.57-10.81c4.48-2.57,9.44-3.86,14.89-3.86,7.71,0,14.06,2.69,19.04,8.06V1.52h12.73v81.77h-10.75l-1.29-9c-2.18,3.43-5.02,5.98-8.53,7.65s-7.36,2.51-11.57,2.51c-5.37,0-10.26-1.28-14.66-3.85ZM744.13,68.17c3.23-3.54,4.85-8.24,4.85-14.08s-1.62-10.53-4.85-14.08c-3.23-3.54-7.38-5.32-12.44-5.32s-9.19,1.79-12.38,5.37c-3.19,3.58-4.79,8.26-4.79,14.02s1.6,10.44,4.79,14.02c3.19,3.58,7.32,5.38,12.38,5.38s9.21-1.77,12.44-5.31Z"/>
        <path class="cls-1" d="M788.63,80.55c-4.32-2.61-7.73-6.23-10.22-10.86-2.49-4.63-3.74-9.83-3.74-15.59s1.26-10.73,3.8-15.36c2.53-4.63,6.05-8.29,10.57-10.98s9.58-4.03,15.19-4.03c5.14,0,9.73,1.09,13.78,3.27,4.05,2.18,7.2,5.42,9.46,9.7,2.26,4.29,3.39,9.46,3.39,15.54,0,1.64-.04,2.84-.12,3.62h-42.87c.31,5.76,1.91,10.18,4.79,13.26,2.88,3.08,6.62,4.61,11.22,4.61,3.5,0,6.52-.84,9.05-2.51,2.53-1.67,4.26-3.99,5.2-6.95h12.5c-1.56,6.62-4.85,11.64-9.87,15.07-5.02,3.43-10.85,5.14-17.46,5.14-5.45,0-10.34-1.3-14.66-3.91ZM817.78,46.73c-.47-3.89-1.95-6.91-4.44-9.05-2.49-2.14-5.65-3.21-9.46-3.21s-6.86,1.07-9.58,3.21c-2.73,2.14-4.6,5.16-5.61,9.05h29.09Z"/>
        <path class="cls-1" d="M867.66,24.88h11.1l.93,7.13h.12c1.56-2.18,3.82-4.11,6.78-5.78s6.23-2.51,9.81-2.51,6.64.78,9.4,2.34,4.85,3.66,6.25,6.31h.23c1.79-2.57,4.13-4.65,7.01-6.25,2.88-1.6,6.27-2.4,10.16-2.4,6,0,10.86,1.97,14.6,5.9,3.74,3.93,5.61,9.48,5.61,16.65v37.03h-13.32v-36.8c0-3.5-.93-6.27-2.8-8.3-1.87-2.02-4.36-3.04-7.48-3.04-3.27,0-5.88,1.01-7.83,3.04-1.95,2.03-2.92,4.79-2.92,8.3v36.8h-13.32v-36.8c0-3.5-.92-6.27-2.74-8.3-1.83-2.02-4.34-3.04-7.54-3.04s-5.88,1.01-7.83,3.04c-1.95,2.03-2.92,4.79-2.92,8.3v36.8h-13.32V24.88Z"/>
        <path class="cls-1" d="M970.34,82.47c-2.8-1.32-5.06-3.27-6.78-5.84-1.71-2.57-2.57-5.64-2.57-9.23,0-4.98,1.64-8.84,4.91-11.56,3.27-2.73,7.95-4.71,14.02-5.96l11.21-2.34c1.95-.39,3.31-.97,4.09-1.75.78-.78,1.17-1.79,1.17-3.04v-.35c.08-2.26-.68-4.05-2.28-5.37s-3.87-1.99-6.83-1.99-5.53.72-7.48,2.16c-1.95,1.44-3.16,3.6-3.62,6.48h-13.43c.62-6.15,3.23-11.02,7.83-14.6,4.59-3.58,10.2-5.38,16.82-5.38s12.31,1.75,16.36,5.26c4.05,3.51,6.08,8.69,6.08,15.54v38.78h-10.98l-1.4-7.48h-.12c-1.4,2.34-3.66,4.36-6.78,6.08-3.12,1.71-6.82,2.57-11.1,2.57-3.27,0-6.31-.66-9.11-1.99ZM992.95,70.03c2.45-2.53,3.68-6.09,3.68-10.69v-4.79c-.86.86-2.18,1.48-3.97,1.87l-9.23,2.1c-2.88.62-5,1.58-6.37,2.86-1.36,1.28-2.04,2.98-2.04,5.08,0,2.34.76,4.15,2.28,5.43,1.52,1.29,3.45,1.93,5.78,1.93,4.13,0,7.42-1.27,9.87-3.8Z"/>
        <path class="cls-1" d="M1025.13,24.88h10.63l1.4,9.46c1.48-3.43,3.91-6.06,7.3-7.89,3.39-1.83,7.65-2.75,12.79-2.75v12.03c-6.78,0-11.66,1.4-14.66,4.21-3,2.8-4.5,7.25-4.5,13.32v30.02h-12.97V24.88Z"/>
        <path class="cls-1" d="M1063.21,75.11l28.15-40.42h-27.92v-9.81h43.81v8.18l-28.27,40.42h28.5v9.81h-44.27v-8.18Z"/>
        <path class="cls-1" d="M1129.16,80.37c-4.71-2.73-8.43-6.4-11.16-11.04-2.73-4.63-4.09-9.75-4.09-15.36s1.34-10.71,4.03-15.3c2.69-4.6,6.37-8.24,11.04-10.92s9.93-4.03,15.77-4.03,11.1,1.34,15.77,4.03c4.67,2.69,8.31,6.33,10.92,10.92s3.91,9.7,3.91,15.3-1.32,10.73-3.97,15.36c-2.65,4.64-6.31,8.32-10.98,11.04s-9.89,4.09-15.65,4.09-10.88-1.36-15.6-4.09ZM1156.84,67.23c3.16-3.39,4.73-7.81,4.73-13.26s-1.58-9.83-4.73-13.14c-3.15-3.31-7.18-4.97-12.09-4.97s-9.05,1.66-12.21,4.97c-3.15,3.31-4.73,7.69-4.73,13.14s1.58,9.87,4.73,13.26c3.16,3.39,7.22,5.08,12.21,5.08s8.94-1.69,12.09-5.08Z"/>
      </g>
      <g>
        <path class="cls-1" d="M49.64,203.96c-1.67,3.64-3.7,6.75-6.1,9.34s-5.64,5.61-9.71,9.06c-3.82,3.33-6.84,6.13-9.06,8.41-2.22,2.28-4.07,4.99-5.55,8.14-1.48,3.14-2.22,6.75-2.22,10.82,0,7.4,2.65,13.22,7.95,17.47,5.3,4.25,12.08,6.38,20.34,6.38,9.86,0,17.63-2.99,23.3-8.97,5.67-5.98,8.51-13.84,8.51-23.58h7.4c0,11.96-3.58,21.48-10.73,28.57-7.15,7.09-16.64,10.63-28.48,10.63-10.48,0-19.08-2.74-25.79-8.23-6.72-5.49-10.08-12.79-10.08-21.91,0-5.06.86-9.49,2.59-13.31,1.72-3.82,3.82-7.03,6.29-9.62,2.46-2.59,5.73-5.67,9.8-9.24,5.55-4.68,9.68-8.88,12.39-12.58s4.13-8.32,4.25-13.87h7.4c0,4.69-.83,8.85-2.49,12.48ZM53.43,149.23c1.48,1.42,2.22,3.23,2.22,5.45,0,2.1-.77,3.88-2.31,5.36-1.54,1.48-3.36,2.22-5.45,2.22-1.97,0-3.67-.74-5.09-2.22-1.42-1.48-2.13-3.27-2.13-5.36,0-2.22.68-4.04,2.03-5.45,1.36-1.42,3.08-2.13,5.18-2.13,2.22,0,4.07.71,5.55,2.13Z"/>
        <path class="cls-1" d="M138.12,234.19c-9.98-6.04-17.78-14.18-23.39-24.41-5.61-10.23-8.41-21.39-8.41-33.47s2.77-23.18,8.32-33.28c5.55-10.11,13.34-18.12,23.39-24.04,10.05-5.92,21.42-8.88,34.12-8.88s24.22,2.96,34.21,8.88c9.99,5.92,17.75,13.93,23.3,24.04,5.55,10.11,8.32,21.2,8.32,33.28,0,10.35-2.06,20.09-6.19,29.22-4.13,9.12-9.96,16.77-17.47,22.93l16.27,20.15-5.92,4.25-16.27-19.97c-10.6,6.9-22.68,10.36-36.24,10.36-12.7,0-24.04-3.02-34.02-9.06ZM203.95,227.35l-29.77-36.61,5.73-4.62,29.96,36.8c6.41-5.42,11.4-12.14,14.98-20.16,3.57-8.01,5.36-16.83,5.36-26.44,0-11.22-2.49-21.33-7.49-30.33-4.99-9-11.9-16.05-20.71-21.17-8.82-5.11-18.77-7.67-29.86-7.67s-21.23,2.56-30.05,7.67c-8.82,5.12-15.69,12.17-20.62,21.17-4.93,9-7.4,19.11-7.4,30.33s2.46,21.57,7.4,30.7c4.93,9.12,11.8,16.27,20.62,21.45,8.81,5.18,18.83,7.77,30.05,7.77,11.83,0,22.44-2.96,31.8-8.88Z"/>
        <path class="cls-1" d="M338.75,241.41h-5.36l-2.03-15.16c-2.71,5.3-6.81,9.46-12.3,12.48-5.49,3.02-11.56,4.53-18.21,4.53-10.36,0-18.8-3.3-25.33-9.89-6.53-6.59-9.8-15.75-9.8-27.46v-56.95h7.03v56.95c0,9.74,2.56,17.32,7.67,22.75,5.11,5.42,12.11,8.14,20.99,8.14,9.37,0,16.76-2.77,22.19-8.32s8.14-13.06,8.14-22.56v-56.95h7.03v92.46Z"/>
        <path class="cls-1" d="M373.32,124.54c-1.36-1.36-2.03-3.02-2.03-4.99s.68-3.6,2.03-4.9c1.36-1.29,3.08-1.94,5.18-1.94,1.85,0,3.42.65,4.71,1.94s1.94,2.93,1.94,4.9-.65,3.64-1.94,4.99c-1.29,1.36-2.87,2.03-4.71,2.03-2.1,0-3.82-.67-5.18-2.03ZM374.8,148.95h7.03v92.46h-7.03v-92.46Z"/>
        <path class="cls-1" d="M432.59,237.8c-6.84-3.63-12.3-9.09-16.36-16.36-4.07-7.27-6.1-16.09-6.1-26.44,0-9.37,2.03-17.69,6.1-24.96,4.07-7.27,9.55-12.91,16.46-16.92,6.9-4,14.42-6.01,22.56-6.01,11.59,0,21.14,3.58,28.66,10.73,7.52,7.15,11.28,17.69,11.28,31.62v3.51h-77.48v2.03c0,13.93,3.54,24.38,10.63,31.34,7.09,6.97,16.05,10.45,26.9,10.45,8.75,0,16-2.13,21.73-6.38,5.73-4.25,9.27-10.08,10.63-17.47h7.4c-1.48,9.5-6.01,16.92-13.59,22.28-7.58,5.36-16.36,8.04-26.35,8.04-8.14,0-15.62-1.82-22.47-5.45ZM488.15,186.67c-.74-11.22-4.1-19.54-10.08-24.96-5.98-5.42-13.59-8.14-22.84-8.14s-17.17,2.96-24.13,8.88c-6.97,5.92-11.25,13.99-12.85,24.22h69.9ZM463.74,112.15h8.88v.55l-19.6,22.37h-7.03l17.75-22.93Z"/>
        <path class="cls-1" d="M521.25,148.95h5.36l2.03,15.16c2.71-5.3,6.81-9.46,12.3-12.48,5.48-3.02,11.56-4.53,18.21-4.53,10.35,0,18.8,3.3,25.33,9.89,6.53,6.6,9.8,15.75,9.8,27.46v56.95h-7.03v-56.95c0-9.74-2.56-17.32-7.67-22.75-5.12-5.42-12.11-8.14-20.99-8.14-9.37,0-16.76,2.77-22.19,8.32-5.42,5.55-8.14,13.07-8.14,22.56v56.95h-7.03v-92.46Z"/>
        <path class="cls-1" d="M674.63,271.36c-7.95-5.92-13.04-13.87-15.26-23.85h21.45c1.23,5.05,3.91,9.03,8.04,11.93,4.13,2.89,9.34,4.35,15.63,4.35,8.38,0,14.88-2.44,19.51-7.3,4.62-4.87,6.93-11.93,6.93-21.17v-9.8c-3.33,4.44-7.58,7.8-12.76,10.08-5.18,2.28-10.97,3.42-17.38,3.42-7.89,0-15.1-2.06-21.63-6.19-6.54-4.13-11.71-9.74-15.53-16.83-3.82-7.09-5.73-14.88-5.73-23.39s2-16.21,6.01-23.11c4-6.9,9.46-12.36,16.36-16.36,6.9-4,14.49-6.01,22.75-6.01,6.66,0,12.63,1.17,17.94,3.51,5.3,2.34,9.31,5.43,12.02,9.24l1.48-10.91h16.83v86.35c0,9.25-1.94,17.26-5.82,24.04-3.88,6.78-9.37,11.96-16.46,15.53-7.09,3.58-15.26,5.36-24.5,5.36-11.96,0-21.91-2.96-29.86-8.88ZM723.45,212.75c4.99-5.18,7.49-11.9,7.49-20.16s-2.47-14.48-7.4-19.41c-4.93-4.93-11.22-7.4-18.86-7.4s-13.62,2.44-18.31,7.3c-4.69,4.87-7.03,11.37-7.03,19.51s2.34,14.98,7.03,20.16c4.68,5.18,10.72,7.76,18.12,7.76s13.96-2.59,18.95-7.76Z"/>
        <path class="cls-1" d="M781.78,240.11c-4.44-2.1-8.01-5.18-10.72-9.25-2.71-4.07-4.07-8.94-4.07-14.61,0-7.89,2.59-13.99,7.77-18.31,5.18-4.31,12.58-7.46,22.19-9.43l17.75-3.7c3.08-.62,5.24-1.54,6.47-2.77s1.85-2.84,1.85-4.81v-.55c.12-3.57-1.08-6.41-3.61-8.51-2.53-2.09-6.13-3.14-10.82-3.14s-8.75,1.14-11.83,3.42c-3.08,2.28-4.99,5.7-5.73,10.26h-21.27c.98-9.74,5.11-17.44,12.39-23.11,7.27-5.67,16.15-8.51,26.63-8.51s19.48,2.77,25.89,8.32c6.41,5.55,9.61,13.75,9.61,24.59v61.39h-17.38l-2.22-11.84h-.19c-2.22,3.7-5.8,6.91-10.72,9.62-4.93,2.71-10.79,4.07-17.57,4.07-5.18,0-9.99-1.05-14.42-3.14ZM817.56,220.42c3.88-4,5.82-9.64,5.82-16.92v-7.58c-1.36,1.36-3.45,2.34-6.29,2.96l-14.61,3.33c-4.56.99-7.92,2.5-10.08,4.53-2.16,2.03-3.23,4.71-3.23,8.04,0,3.7,1.2,6.57,3.61,8.6,2.4,2.03,5.45,3.05,9.15,3.05,6.53,0,11.74-2,15.62-6.01Z"/>
        <path class="cls-1" d="M865.36,148.95h16.64l2.22,10.73h.19c2.46-3.45,6.13-6.41,11-8.88,4.87-2.47,10.63-3.7,17.29-3.7,6.29,0,12.02,1.39,17.2,4.16,5.18,2.77,9.31,6.84,12.39,12.2,3.08,5.36,4.62,11.74,4.62,19.14v58.8h-20.89v-54.36c0-7.15-1.79-12.6-5.36-16.36-3.58-3.76-8.32-5.64-14.24-5.64s-10.91,1.91-14.61,5.73c-3.7,3.82-5.55,9.25-5.55,16.27v54.36h-20.89v-92.46Z"/>
        <path class="cls-1" d="M976.3,240.11c-4.44-2.1-8.01-5.18-10.72-9.25-2.71-4.07-4.07-8.94-4.07-14.61,0-7.89,2.59-13.99,7.77-18.31,5.18-4.31,12.58-7.46,22.19-9.43l17.75-3.7c3.08-.62,5.24-1.54,6.47-2.77s1.85-2.84,1.85-4.81v-.55c.12-3.57-1.08-6.41-3.61-8.51-2.53-2.09-6.13-3.14-10.82-3.14s-8.75,1.14-11.83,3.42c-3.08,2.28-4.99,5.7-5.73,10.26h-21.27c.98-9.74,5.11-17.44,12.39-23.11,7.27-5.67,16.15-8.51,26.63-8.51s19.48,2.77,25.89,8.32c6.41,5.55,9.61,13.75,9.61,24.59v61.39h-17.38l-2.22-11.84h-.19c-2.22,3.7-5.8,6.91-10.72,9.62-4.93,2.71-10.79,4.07-17.57,4.07-5.18,0-9.99-1.05-14.42-3.14ZM1012.08,220.42c3.88-4,5.82-9.64,5.82-16.92v-7.58c-1.36,1.36-3.45,2.34-6.29,2.96l-14.61,3.33c-4.56.99-7.92,2.5-10.08,4.53-2.16,2.03-3.23,4.71-3.23,8.04,0,3.7,1.2,6.57,3.61,8.6,2.4,2.03,5.45,3.05,9.15,3.05,6.53,0,11.74-2,15.62-6.01Z"/>
        <path class="cls-1" d="M1129.22,238.63l-35.69-89.68h7.77l31.81,80.62,34.58-80.62h7.58l-55.48,129.44h-7.4l16.83-39.76Z"/>
        <path class="cls-1" d="M74.42,328.54c6.72,3.88,11.8,9.77,15.25,17.66v-21.64h7.03v129.44h-7.03v-58.62c-3.58,7.76-8.69,13.62-15.35,17.57-6.66,3.95-13.75,5.92-21.26,5.92-8.26,0-15.69-2.06-22.28-6.19-6.6-4.13-11.77-9.83-15.53-17.1-3.76-7.27-5.64-15.47-5.64-24.59s1.88-17.53,5.64-24.87c3.76-7.33,8.94-13.06,15.53-17.2,6.59-4.13,14.02-6.19,22.28-6.19,7.52,0,14.64,1.94,21.36,5.83ZM34.48,334.45c-5.49,3.51-9.77,8.45-12.85,14.79-3.08,6.35-4.62,13.59-4.62,21.73s1.54,15.35,4.62,21.63c3.08,6.29,7.36,11.16,12.85,14.61,5.49,3.45,11.68,5.18,18.58,5.18s13.13-1.72,18.68-5.18c5.55-3.45,9.92-8.29,13.13-14.52,3.2-6.22,4.81-13.47,4.81-21.73s-1.6-15.56-4.81-21.91c-3.21-6.35-7.58-11.25-13.13-14.7-5.55-3.45-11.77-5.18-18.68-5.18s-13.1,1.76-18.58,5.27Z"/>
        <path class="cls-1" d="M207.09,417.02h-5.36l-2.03-15.16c-2.71,5.3-6.81,9.46-12.3,12.48-5.49,3.02-11.56,4.53-18.21,4.53-10.36,0-18.8-3.3-25.33-9.89-6.53-6.59-9.8-15.75-9.8-27.46v-56.95h7.03v56.95c0,9.74,2.56,17.32,7.67,22.75,5.11,5.42,12.11,8.14,20.99,8.14,9.37,0,16.76-2.77,22.19-8.32,5.42-5.55,8.14-13.06,8.14-22.56v-56.95h7.03v92.46Z"/>
        <path class="cls-1" d="M244.81,300.15c-1.36-1.36-2.03-3.02-2.03-4.99s.68-3.6,2.03-4.9c1.36-1.29,3.08-1.94,5.18-1.94,1.85,0,3.42.65,4.71,1.94s1.94,2.93,1.94,4.9-.65,3.64-1.94,4.99c-1.29,1.36-2.87,2.03-4.71,2.03-2.1,0-3.82-.67-5.18-2.03ZM246.29,324.56h7.03v92.46h-7.03v-92.46Z"/>
        <path class="cls-1" d="M307.22,413.41c-6.84-3.63-12.3-9.09-16.36-16.36-4.07-7.27-6.1-16.09-6.1-26.44,0-9.37,2.03-17.69,6.1-24.96,4.07-7.27,9.55-12.91,16.46-16.92,6.9-4,14.42-6.01,22.56-6.01,11.59,0,21.14,3.58,28.66,10.73,7.52,7.15,11.28,17.69,11.28,31.62v3.51h-77.48v2.03c0,13.93,3.54,24.38,10.63,31.34,7.09,6.97,16.05,10.45,26.9,10.45,8.75,0,16-2.13,21.73-6.38,5.73-4.25,9.27-10.08,10.63-17.47h7.4c-1.48,9.5-6.01,16.92-13.59,22.28s-16.36,8.04-26.35,8.04c-8.14,0-15.62-1.82-22.47-5.45ZM362.78,362.28c-.74-11.22-4.1-19.54-10.08-24.96-5.98-5.42-13.59-8.14-22.84-8.14s-17.17,2.96-24.13,8.88c-6.97,5.92-11.25,13.99-12.85,24.22h69.9ZM338.37,287.76h8.88v.55l-19.6,22.37h-7.03l17.75-22.93Z"/>
        <path class="cls-1" d="M399.02,324.56h5.36l2.03,15.16c2.71-5.3,6.81-9.46,12.3-12.48,5.48-3.02,11.56-4.53,18.21-4.53,10.35,0,18.8,3.3,25.33,9.89,6.53,6.6,9.8,15.75,9.8,27.46v56.95h-7.03v-56.95c0-9.74-2.56-17.32-7.67-22.75-5.12-5.42-12.11-8.14-20.99-8.14-9.37,0-16.76,2.77-22.19,8.32-5.42,5.55-8.14,13.07-8.14,22.56v56.95h-7.03v-92.46Z"/>
        <path class="cls-1" d="M621,328.81c6.96,4.07,12.48,9.74,16.55,17.01,4.07,7.28,6.1,15.53,6.1,24.78s-2.03,17.72-6.1,25.06c-4.07,7.33-9.65,13.04-16.73,17.1-7.09,4.07-14.95,6.1-23.58,6.1-12.2,0-22.25-4.25-30.14-12.76v47.89h-20.15v-129.44h17.01l2.03,14.24c3.45-5.42,7.95-9.46,13.5-12.11,5.55-2.65,11.65-3.98,18.31-3.98,8.51,0,16.24,2.03,23.21,6.1ZM574.78,348.51c-5.12,5.61-7.67,13.04-7.67,22.28s2.56,16.67,7.67,22.28c5.11,5.61,11.68,8.41,19.69,8.41s14.54-2.83,19.6-8.51c5.05-5.67,7.58-13.06,7.58-22.19s-2.53-16.52-7.58-22.19c-5.06-5.67-11.59-8.51-19.6-8.51s-14.58,2.8-19.69,8.41Z"/>
        <path class="cls-1" d="M665.01,307.27c-2.53-2.53-3.79-5.58-3.79-9.15s1.26-6.62,3.79-9.15,5.57-3.79,9.15-3.79,6.62,1.27,9.15,3.79c2.53,2.53,3.79,5.58,3.79,9.15s-1.27,6.63-3.79,9.15c-2.53,2.53-5.58,3.79-9.15,3.79s-6.63-1.26-9.15-3.79ZM664.18,324.56h20.34v92.46h-20.34v-92.46Z"/>
        <path class="cls-1" d="M726.96,412.67c-6.84-4.13-12.23-9.86-16.18-17.2-3.95-7.33-5.92-15.56-5.92-24.69s2-16.98,6.01-24.31c4-7.33,9.58-13.13,16.73-17.38,7.15-4.25,15.16-6.38,24.04-6.38,8.14,0,15.41,1.73,21.82,5.18,6.41,3.45,11.4,8.57,14.98,15.35,3.57,6.78,5.36,14.98,5.36,24.59,0,2.59-.06,4.5-.18,5.73h-67.86c.49,9.12,3.02,16.12,7.58,20.99,4.56,4.87,10.48,7.3,17.75,7.3,5.55,0,10.32-1.32,14.33-3.97,4.01-2.65,6.75-6.31,8.23-11h19.79c-2.47,10.48-7.67,18.43-15.62,23.85-7.95,5.42-17.17,8.14-27.64,8.14-8.63,0-16.36-2.06-23.21-6.19ZM773.09,359.14c-.74-6.16-3.08-10.94-7.03-14.33-3.95-3.39-8.94-5.08-14.98-5.08s-10.85,1.7-15.16,5.08c-4.32,3.39-7.28,8.17-8.88,14.33h46.04Z"/>
        <path class="cls-1" d="M813.03,324.56h16.83l2.22,14.98c2.34-5.42,6.19-9.58,11.56-12.48,5.36-2.89,12.11-4.35,20.25-4.35v19.05c-10.72,0-18.46,2.22-23.21,6.66-4.75,4.44-7.12,11.46-7.12,21.08v47.52h-20.52v-92.46Z"/>
        <path class="cls-1" d="M895.78,412.76c-6.97-4.07-12.48-9.74-16.55-17.01-4.07-7.27-6.1-15.53-6.1-24.78s2.03-17.72,6.1-25.05,9.64-13.04,16.73-17.1c7.09-4.07,14.95-6.1,23.58-6.1,12.2,0,22.25,4.25,30.14,12.76v-47.89h20.15v129.44h-17.01l-2.03-14.24c-3.45,5.43-7.95,9.46-13.5,12.11-5.55,2.65-11.65,3.97-18.31,3.97-8.51,0-16.25-2.03-23.21-6.1ZM942.01,393.07c5.11-5.61,7.67-13.04,7.67-22.28s-2.56-16.67-7.67-22.28c-5.12-5.61-11.68-8.41-19.69-8.41s-14.55,2.84-19.6,8.51c-5.06,5.67-7.58,13.07-7.58,22.19s2.53,16.52,7.58,22.19c5.05,5.67,11.59,8.51,19.6,8.51s14.58-2.8,19.69-8.41Z"/>
        <path class="cls-1" d="M1012.45,412.67c-6.84-4.13-12.23-9.86-16.18-17.2-3.95-7.33-5.92-15.56-5.92-24.69s2-16.98,6.01-24.31c4-7.33,9.58-13.13,16.73-17.38,7.15-4.25,15.16-6.38,24.04-6.38,8.14,0,15.41,1.73,21.82,5.18,6.41,3.45,11.4,8.57,14.98,15.35,3.57,6.78,5.36,14.98,5.36,24.59,0,2.59-.06,4.5-.18,5.73h-67.86c.49,9.12,3.02,16.12,7.58,20.99,4.56,4.87,10.48,7.3,17.75,7.3,5.55,0,10.32-1.32,14.33-3.97,4.01-2.65,6.75-6.31,8.23-11h19.79c-2.47,10.48-7.67,18.43-15.62,23.85-7.95,5.42-17.17,8.14-27.64,8.14-8.63,0-16.36-2.06-23.21-6.19ZM1058.59,359.14c-.74-6.16-3.08-10.94-7.03-14.33-3.95-3.39-8.94-5.08-14.98-5.08s-10.85,1.7-15.16,5.08c-4.32,3.39-7.28,8.17-8.88,14.33h46.04Z"/>
        <path class="cls-1" d="M1132.46,362c1.66-3.63,3.7-6.75,6.1-9.34,2.41-2.59,5.64-5.61,9.71-9.06,3.82-3.33,6.84-6.13,9.06-8.41,2.22-2.28,4.07-4.99,5.55-8.14s2.22-6.75,2.22-10.82c0-7.4-2.65-13.22-7.95-17.47-5.3-4.25-12.08-6.38-20.34-6.38-9.86,0-17.63,2.99-23.3,8.97-5.67,5.98-8.51,13.84-8.51,23.58h-7.4c0-11.96,3.57-21.48,10.72-28.57,7.15-7.09,16.64-10.63,28.48-10.63,10.48,0,19.07,2.75,25.79,8.23,6.72,5.49,10.08,12.79,10.08,21.91,0,5.06-.86,9.49-2.59,13.31-1.73,3.82-3.82,7.03-6.29,9.62s-5.73,5.67-9.8,9.25c-5.55,4.69-9.68,8.88-12.39,12.57-2.71,3.7-4.13,8.32-4.25,13.87h-7.4c0-4.68.83-8.84,2.5-12.48ZM1128.67,416.74c-1.48-1.42-2.22-3.24-2.22-5.45,0-2.1.77-3.88,2.31-5.36,1.54-1.48,3.36-2.22,5.45-2.22,1.97,0,3.66.74,5.08,2.22,1.42,1.48,2.13,3.27,2.13,5.36,0,2.22-.68,4.04-2.03,5.45-1.36,1.41-3.08,2.13-5.18,2.13-2.22,0-4.07-.71-5.55-2.13Z"/>
      </g>
      <g>
        <path class="cls-1" d="M24.34,546.65h4.98l24.06,65.79h-4.23l-7.8-21.62H12.03l-7.89,21.62H0l24.34-65.79ZM40.04,587.34l-13.25-36.75-13.44,36.75h26.69Z"/>
        <path class="cls-1" d="M97.27,565.44h2.73l1.03,7.71c1.38-2.69,3.46-4.81,6.25-6.34,2.79-1.53,5.88-2.3,9.26-2.3,5.26,0,9.55,1.68,12.87,5.03,3.32,3.35,4.98,8.01,4.98,13.96v28.95h-3.57v-28.95c0-4.95-1.3-8.8-3.9-11.56-2.6-2.76-6.16-4.13-10.67-4.13-4.76,0-8.52,1.41-11.28,4.23s-4.13,6.64-4.13,11.47v28.95h-3.57v-46.99Z"/>
        <path class="cls-1" d="M184.26,609.57c-2.85-2.35-4.28-5.69-4.28-10.01,0-4.07,1.32-7.22,3.95-9.45,2.63-2.22,6.04-3.68,10.24-4.37l11.46-1.88c1.94-.31,3.23-.7,3.85-1.17.63-.47.94-1.3.94-2.49v-1.6c.07-3.45-1-6.11-3.19-7.99s-5.14-2.82-8.83-2.82-6.89,1.02-9.21,3.05c-2.32,2.04-3.7,4.84-4.13,8.41h-3.58c.44-4.64,2.23-8.26,5.36-10.86,3.13-2.6,6.98-3.9,11.56-3.9s8.16,1.22,11.14,3.66c2.98,2.44,4.47,5.77,4.47,9.96v34.3h-3.2v-8.55c-1.19,2.76-3.21,4.98-6.06,6.67-2.85,1.69-6.22,2.54-10.1,2.54s-7.54-1.17-10.38-3.52ZM206.29,605.57c2.76-2.82,4.13-6.67,4.13-11.56v-8.55c-.75.63-2.26,1.16-4.51,1.6l-11.28,1.97c-7.27,1.25-10.9,4.73-10.9,10.43,0,3.32,1.05,5.88,3.15,7.66,2.1,1.79,4.75,2.68,7.94,2.68,4.89,0,8.71-1.41,11.46-4.23ZM202.44,546.74h4.51v.28l-9.96,11.37h-3.57l9.02-11.65Z"/>
        <path class="cls-1" d="M264.47,546.65h3.57v65.79h-3.57v-65.79Z"/>
        <path class="cls-1" d="M318.79,553.04c-.69-.69-1.03-1.53-1.03-2.54s.34-1.83,1.03-2.49,1.56-.99,2.63-.99c.94,0,1.74.33,2.4.99s.99,1.49.99,2.49-.33,1.85-.99,2.54c-.66.69-1.46,1.03-2.4,1.03-1.07,0-1.94-.34-2.63-1.03ZM319.54,565.44h3.57v46.99h-3.57v-46.99Z"/>
        <path class="cls-1" d="M379.46,611.59c-2.79-1.19-5.03-2.94-6.72-5.26-1.7-2.32-2.54-5.11-2.54-8.37h3.58c0,3.51,1.34,6.41,4.04,8.69,2.69,2.29,6.26,3.43,10.71,3.43,4.13,0,7.38-.97,9.73-2.91s3.52-4.54,3.52-7.8c0-3.07-1.01-5.37-3.05-6.91-2.03-1.54-5.65-2.65-10.85-3.34-5.52-.75-9.58-2.07-12.22-3.95s-3.95-4.67-3.95-8.36,1.44-6.59,4.33-8.88c2.88-2.29,6.73-3.43,11.56-3.43s8.75,1.29,11.79,3.85c3.04,2.57,4.56,6.2,4.56,10.9h-3.67c0-3.7-1.11-6.53-3.34-8.51-2.22-1.97-5.4-2.96-9.54-2.96-3.45,0-6.31.77-8.6,2.3-2.29,1.54-3.43,3.71-3.43,6.53s1,4.81,3.01,6.16c2,1.35,5.48,2.34,10.43,2.96,5.51.75,9.66,2.19,12.45,4.32,2.79,2.13,4.19,5.2,4.19,9.21,0,4.26-1.6,7.68-4.8,10.25-3.19,2.57-7.24,3.85-12.12,3.85-3.26,0-6.28-.6-9.07-1.79Z"/>
        <path class="cls-1" d="M451.31,553.04c-.69-.69-1.03-1.53-1.03-2.54s.34-1.83,1.03-2.49,1.56-.99,2.63-.99c.94,0,1.74.33,2.4.99s.99,1.49.99,2.49-.33,1.85-.99,2.54c-.66.69-1.46,1.03-2.4,1.03-1.07,0-1.94-.34-2.63-1.03ZM452.06,565.44h3.57v46.99h-3.57v-46.99Z"/>
        <path class="cls-1" d="M511.98,611.59c-2.79-1.19-5.03-2.94-6.72-5.26-1.7-2.32-2.54-5.11-2.54-8.37h3.58c0,3.51,1.34,6.41,4.04,8.69,2.69,2.29,6.26,3.43,10.71,3.43,4.13,0,7.38-.97,9.73-2.91s3.52-4.54,3.52-7.8c0-3.07-1.01-5.37-3.05-6.91-2.03-1.54-5.65-2.65-10.85-3.34-5.52-.75-9.58-2.07-12.22-3.95s-3.95-4.67-3.95-8.36,1.44-6.59,4.33-8.88c2.88-2.29,6.73-3.43,11.56-3.43s8.75,1.29,11.79,3.85c3.04,2.57,4.56,6.2,4.56,10.9h-3.67c0-3.7-1.11-6.53-3.34-8.51-2.22-1.97-5.4-2.96-9.54-2.96-3.45,0-6.31.77-8.6,2.3-2.29,1.54-3.43,3.71-3.43,6.53s1,4.81,3.01,6.16c2,1.35,5.48,2.34,10.43,2.96,5.51.75,9.66,2.19,12.45,4.32,2.79,2.13,4.19,5.2,4.19,9.21,0,4.26-1.6,7.68-4.8,10.25-3.19,2.57-7.24,3.85-12.12,3.85-3.26,0-6.28-.6-9.07-1.79Z"/>
        <path class="cls-1" d="M639.75,546.65h20.58c5.7,0,10.26,1.46,13.68,4.37,3.41,2.91,5.12,7,5.12,12.27,0,3.32-.8,6.3-2.4,8.93s-3.82,4.67-6.67,6.11c-2.85,1.44-6.09,2.16-9.73,2.16h-16.73v31.95h-3.85v-65.79ZM671.32,573.24c2.63-2.44,3.95-5.76,3.95-9.96s-1.29-7.66-3.85-9.82c-2.57-2.16-6.27-3.24-11.09-3.24h-16.73v26.69h16.73c4.7,0,8.37-1.22,11-3.67Z"/>
        <path class="cls-1" d="M729.45,610.23c-3.6-2.1-6.47-5.01-8.6-8.74-2.13-3.73-3.2-7.94-3.2-12.64s1.05-8.89,3.15-12.59c2.1-3.7,4.95-6.58,8.55-8.65s7.56-3.1,11.89-3.1,8.26,1.03,11.8,3.1c3.54,2.07,6.34,4.95,8.41,8.65,2.07,3.7,3.1,7.89,3.1,12.59s-1.03,8.92-3.1,12.64c-2.07,3.73-4.87,6.64-8.41,8.74-3.54,2.1-7.48,3.15-11.8,3.15s-8.19-1.05-11.79-3.15ZM750.88,607.5c2.97-1.72,5.36-4.2,7.14-7.43,1.79-3.23,2.68-6.97,2.68-11.23s-.89-7.99-2.68-11.18c-1.79-3.2-4.17-5.64-7.14-7.33-2.98-1.69-6.16-2.54-9.54-2.54s-6.69.85-9.73,2.54c-3.04,1.69-5.48,4.13-7.33,7.33-1.85,3.19-2.77,6.92-2.77,11.18s.92,8.01,2.77,11.23c1.85,3.23,4.29,5.7,7.33,7.43,3.04,1.72,6.28,2.58,9.73,2.58s6.56-.86,9.54-2.58Z"/>
        <path class="cls-1" d="M812.11,546.65h3.57v65.79h-3.57v-65.79Z"/>
        <path class="cls-1" d="M873.11,546.74h4.51v.28l-9.96,11.37h-3.58l9.03-11.65ZM867.19,565.44h3.57v46.99h-3.57v-46.99Z"/>
        <path class="cls-1" d="M924.51,610.55c-1.75-1.88-2.63-4.6-2.63-8.18v-33.74h-9.12v-3.19h3.85c1.88,0,3.23-.36,4.04-1.08s1.22-1.99,1.22-3.81v-9.21h3.57v14.1h14.38v3.19h-14.38v33.27c0,2.82.55,4.89,1.64,6.2s2.99,1.97,5.69,1.97c1.88,0,3.79-.38,5.74-1.13v3.01c-1.76.94-3.86,1.41-6.3,1.41-3.38,0-5.95-.94-7.71-2.82Z"/>
        <path class="cls-1" d="M984.1,553.04c-.69-.69-1.03-1.53-1.03-2.54s.34-1.83,1.03-2.49,1.56-.99,2.63-.99c.94,0,1.74.33,2.4.99s.99,1.49.99,2.49-.33,1.85-.99,2.54c-.66.69-1.46,1.03-2.4,1.03-1.07,0-1.94-.34-2.63-1.03ZM984.85,565.44h3.57v46.99h-3.57v-46.99Z"/>
        <path class="cls-1" d="M1047.87,610.27c-3.6-2.07-6.48-4.97-8.65-8.69-2.17-3.73-3.25-7.97-3.25-12.74s1.07-8.99,3.2-12.69c2.13-3.7,4.99-6.56,8.6-8.6,3.6-2.03,7.56-3.05,11.89-3.05,5.01,0,9.29,1.24,12.83,3.71,3.54,2.48,6.12,6.06,7.75,10.76h-3.85c-1.38-3.7-3.5-6.49-6.34-8.37-2.85-1.88-6.31-2.82-10.39-2.82-3.57,0-6.87.85-9.91,2.54-3.04,1.69-5.45,4.13-7.24,7.33-1.79,3.19-2.68,6.92-2.68,11.18s.89,8.01,2.68,11.23c1.79,3.23,4.2,5.7,7.24,7.43,3.04,1.72,6.34,2.58,9.91,2.58,4.32,0,8.01-1.13,11.05-3.38,3.04-2.26,4.99-5.04,5.87-8.37h3.76c-1.25,4.57-3.76,8.22-7.52,10.95-3.76,2.73-8.15,4.09-13.16,4.09-4.26,0-8.19-1.03-11.79-3.1Z"/>
        <path class="cls-1" d="M1134.33,610.23c-3.6-2.1-6.47-5.01-8.6-8.74-2.13-3.73-3.2-7.94-3.2-12.64s1.05-8.89,3.15-12.59c2.1-3.7,4.95-6.58,8.55-8.65,3.6-2.07,7.56-3.1,11.89-3.1s8.26,1.03,11.8,3.1c3.54,2.07,6.34,4.95,8.41,8.65,2.07,3.7,3.1,7.89,3.1,12.59s-1.03,8.92-3.1,12.64c-2.07,3.73-4.87,6.64-8.41,8.74-3.54,2.1-7.48,3.15-11.8,3.15s-8.19-1.05-11.79-3.15ZM1155.76,607.5c2.97-1.72,5.36-4.2,7.14-7.43,1.79-3.23,2.68-6.97,2.68-11.23s-.89-7.99-2.68-11.18c-1.79-3.2-4.17-5.64-7.14-7.33-2.98-1.69-6.16-2.54-9.54-2.54s-6.69.85-9.73,2.54c-3.04,1.69-5.48,4.13-7.33,7.33-1.85,3.19-2.77,6.92-2.77,11.18s.92,8.01,2.77,11.23c1.85,3.23,4.29,5.7,7.33,7.43,3.04,1.72,6.28,2.58,9.73,2.58s6.56-.86,9.54-2.58Z"/>
      </g>
    </g>
  </g>
</svg>